<svg width="238" height="60" viewBox="0 0 238 60" fill="none" xmlns="http://www.w3.org/2000/svg">
<rect width="238" height="60" rx="30" fill="#5433EB"/>
<path d="M45.0244 33.84V23.28C45.0244 23.1733 45.0777 23.12 45.1844 23.12H49.4244C50.5764 23.12 51.4404 23.3813 52.0164 23.904C52.603 24.416 52.8964 25.12 52.8964 26.016C52.8964 27.0933 52.475 27.8667 51.6324 28.336V28.368C52.027 28.5173 52.3684 28.816 52.6564 29.264C52.9444 29.7013 53.0884 30.224 53.0884 30.832C53.0884 31.888 52.7577 32.6827 52.0964 33.216C51.4457 33.7387 50.5177 34 49.3124 34H45.1844C45.0777 34 45.0244 33.9467 45.0244 33.84ZM47.4724 27.568H49.1364C49.5844 27.568 49.931 27.456 50.1764 27.232C50.4324 27.008 50.5604 26.6933 50.5604 26.288C50.5604 25.8933 50.4324 25.584 50.1764 25.36C49.931 25.136 49.5844 25.024 49.1364 25.024H47.4724C47.4084 25.024 47.3764 25.056 47.3764 25.12V27.472C47.3764 27.536 47.4084 27.568 47.4724 27.568ZM47.3764 32C47.3764 32.064 47.4084 32.096 47.4724 32.096H49.2644C49.7444 32.096 50.107 31.9787 50.3524 31.744C50.6084 31.4987 50.7364 31.1627 50.7364 30.736C50.7364 30.3093 50.6084 29.9787 50.3524 29.744C50.0964 29.4987 49.7337 29.376 49.2644 29.376H47.4724C47.4084 29.376 47.3764 29.408 47.3764 29.472V32ZM61.366 34H59.446C59.3393 34 59.286 33.9467 59.286 33.84V33.28H59.27C58.822 33.8773 58.1607 34.176 57.286 34.176C56.454 34.176 55.8087 33.9147 55.35 33.392C54.902 32.8587 54.678 32.16 54.678 31.296V26.416C54.678 26.3093 54.7313 26.256 54.838 26.256H56.758C56.8647 26.256 56.918 26.3093 56.918 26.416V30.864C56.918 31.2907 57.0193 31.632 57.222 31.888C57.4247 32.144 57.718 32.272 58.102 32.272C58.4753 32.272 58.7633 32.1493 58.966 31.904C59.1793 31.648 59.286 31.3013 59.286 30.864V26.416C59.286 26.3093 59.3393 26.256 59.446 26.256H61.366C61.4727 26.256 61.526 26.3093 61.526 26.416V33.84C61.526 33.9467 61.4727 34 61.366 34ZM64.5633 36.88H64.0193C63.9126 36.88 63.8593 36.8267 63.8593 36.72V35.152C63.8593 35.0453 63.9126 34.992 64.0193 34.992H64.3553C64.6326 34.992 64.8513 34.928 65.0113 34.8C65.1819 34.6827 65.3153 34.48 65.4113 34.192L65.6193 33.616L62.7393 26.416C62.7073 26.3093 62.7499 26.256 62.8673 26.256H64.9153C65.0113 26.256 65.0753 26.3093 65.1073 26.416L66.6593 30.896H66.6913L68.1313 26.416C68.1633 26.3093 68.2273 26.256 68.3233 26.256H70.3073C70.4246 26.256 70.4673 26.3093 70.4353 26.416L67.2993 34.656C66.9793 35.4987 66.6166 36.08 66.2113 36.4C65.8166 36.72 65.2673 36.88 64.5633 36.88ZM83.6699 34H82.0699C81.9739 34 81.9099 33.9467 81.8779 33.84L80.5499 29.344H80.5179L79.1579 33.84C79.1259 33.9467 79.0619 34 78.9659 34H77.3819C77.2859 34 77.2219 33.9467 77.1899 33.84L74.7099 26.416C74.6779 26.3093 74.7152 26.256 74.8219 26.256H76.7899C76.9072 26.256 76.9819 26.3093 77.0139 26.416L78.2939 31.024H78.3259L79.6539 26.416C79.6859 26.3093 79.7605 26.256 79.8779 26.256H81.2219C81.3285 26.256 81.3979 26.3093 81.4299 26.416L82.7899 31.024H82.8219L84.0379 26.416C84.0699 26.3093 84.1392 26.256 84.2459 26.256H86.2139C86.3312 26.256 86.3739 26.3093 86.3419 26.416L83.8619 33.84C83.8299 33.9467 83.7659 34 83.6699 34ZM89.713 25.024H87.793C87.6863 25.024 87.633 24.9707 87.633 24.864V23.28C87.633 23.1733 87.6863 23.12 87.793 23.12H89.713C89.8197 23.12 89.873 23.1733 89.873 23.28V24.864C89.873 24.9707 89.8197 25.024 89.713 25.024ZM89.713 34H87.793C87.6863 34 87.633 33.9467 87.633 33.84V26.416C87.633 26.3093 87.6863 26.256 87.793 26.256H89.713C89.8197 26.256 89.873 26.3093 89.873 26.416V33.84C89.873 33.9467 89.8197 34 89.713 34ZM95.355 34.096H94.507C93.6217 34.096 92.987 33.8933 92.603 33.488C92.2297 33.072 92.043 32.416 92.043 31.52V28C92.043 27.936 92.011 27.904 91.947 27.904H91.467C91.3603 27.904 91.307 27.8507 91.307 27.744V26.416C91.307 26.3093 91.3603 26.256 91.467 26.256H91.947C92.011 26.256 92.043 26.224 92.043 26.16V24.08C92.043 23.9733 92.0963 23.92 92.203 23.92H94.107C94.2137 23.92 94.267 23.9733 94.267 24.08V26.16C94.267 26.224 94.299 26.256 94.363 26.256H95.355C95.4617 26.256 95.515 26.3093 95.515 26.416V27.744C95.515 27.8507 95.4617 27.904 95.355 27.904H94.363C94.299 27.904 94.267 27.936 94.267 28V31.424C94.267 31.712 94.3203 31.9147 94.427 32.032C94.5337 32.1387 94.715 32.192 94.971 32.192H95.355C95.4617 32.192 95.515 32.2453 95.515 32.352V33.936C95.515 34.0427 95.4617 34.096 95.355 34.096ZM103.916 34H101.996C101.889 34 101.836 33.9467 101.836 33.84V29.392C101.836 28.9547 101.735 28.6133 101.532 28.368C101.329 28.112 101.031 27.984 100.636 27.984C100.252 27.984 99.9532 28.112 99.7399 28.368C99.5265 28.624 99.4199 28.9653 99.4199 29.392V33.84C99.4199 33.9467 99.3665 34 99.2599 34H97.3399C97.2332 34 97.1799 33.9467 97.1799 33.84V23.28C97.1799 23.1733 97.2332 23.12 97.3399 23.12H99.2599C99.3665 23.12 99.4199 23.1733 99.4199 23.28V26.96H99.4359C99.8625 26.3733 100.529 26.08 101.436 26.08C102.279 26.08 102.929 26.3467 103.388 26.88C103.847 27.4027 104.076 28.096 104.076 28.96V33.84C104.076 33.9467 104.023 34 103.916 34Z" fill="white"/>
<g clip-path="url(#clip0_49_61)">
<path d="M170.608 26.1484H172.517C173.842 26.1484 174.493 26.6877 174.493 27.589C174.493 28.4912 173.866 29.0296 172.576 29.0296H170.608L170.608 26.1484ZM178.824 33.0591C178.078 33.0591 177.783 32.661 177.783 32.2628C177.783 31.7235 178.398 31.4774 179.605 31.3371L180.551 31.2321C180.492 32.2628 179.794 33.0591 178.824 33.0591Z" fill="white"/>
<path fill-rule="evenodd" clip-rule="evenodd" d="M166.199 19.9199C165.38 19.9199 164.594 20.2421 164.015 20.8155C163.436 21.3889 163.11 22.1666 163.11 22.9775V36.8879C163.11 37.6988 163.436 38.4766 164.015 39.05C164.594 39.6234 165.38 39.9455 166.199 39.9455H191.372C192.191 39.9455 192.976 39.6234 193.556 39.05C194.135 38.4766 194.46 37.6988 194.46 36.8879V22.9775C194.46 22.1667 194.135 21.3892 193.556 20.8158C192.977 20.2424 192.192 19.9201 191.373 19.9199H166.199ZM170.608 33.9261V30.4006H172.848C174.895 30.4006 175.984 29.2641 175.984 27.5429C175.984 25.8209 174.895 24.7902 172.848 24.7902H169.165V33.9261H170.608ZM178.528 34.1134C179.629 34.1134 180.35 33.6329 180.682 32.8131C180.777 33.727 181.332 34.1949 182.539 33.879L182.551 32.9072C182.066 32.9534 181.971 32.7778 181.971 32.2746V29.8848C181.971 28.4795 181.036 27.6479 179.309 27.6479C177.605 27.6479 176.623 28.4913 176.623 29.9201H177.949C177.949 29.2406 178.434 28.8306 179.286 28.8306C180.185 28.8306 180.598 29.217 180.587 29.8848V30.1898L179.06 30.3536C177.345 30.5409 176.398 31.1852 176.398 32.3099C176.398 33.2348 177.061 34.1134 178.528 34.1134ZM186.933 34.3822C186.33 35.8354 185.359 36.268 183.845 36.268H183.195V35.0735H183.892C184.721 35.0735 185.123 34.8156 185.56 34.0781L182.876 27.8352H184.367L186.283 32.3914L187.987 27.8352H189.442L186.934 34.383L186.933 34.3822Z" fill="white"/>
<path d="M116.433 28.7861C114.431 28.3586 113.539 28.1914 113.539 27.4321C113.539 26.7181 114.143 26.3619 115.35 26.3619C116.411 26.3619 117.187 26.8189 117.759 27.7143C117.801 27.7823 117.89 27.8067 117.963 27.7697L120.216 26.6483C120.235 26.6387 120.252 26.6252 120.266 26.6089C120.279 26.5926 120.289 26.5736 120.295 26.5533C120.302 26.5329 120.303 26.5116 120.301 26.4905C120.298 26.4694 120.291 26.4491 120.28 26.4308C119.345 24.8348 117.619 23.9612 115.344 23.9612C112.356 23.9612 110.5 25.411 110.5 27.716C110.5 30.1646 112.76 30.7828 114.765 31.2104C116.769 31.6388 117.665 31.8059 117.665 32.5653C117.665 33.3247 117.012 33.6825 115.711 33.6825C114.509 33.6825 113.617 33.1415 113.079 32.0899C113.069 32.0714 113.056 32.055 113.04 32.0416C113.025 32.0281 113.006 32.0179 112.987 32.0115C112.967 32.0051 112.946 32.0026 112.925 32.0043C112.904 32.0059 112.884 32.0116 112.866 32.021L110.619 33.1163C110.6 33.1257 110.583 33.1386 110.57 33.1544C110.556 33.1701 110.546 33.1884 110.539 33.2081C110.532 33.2279 110.53 33.2487 110.532 33.2694C110.533 33.2901 110.539 33.3103 110.548 33.3289C111.44 35.0945 113.269 36.0883 115.713 36.0883C118.825 36.0883 120.706 34.6619 120.706 32.2856C120.706 29.9084 118.435 29.2187 116.433 28.7912V28.7853V28.7861ZM128.503 23.9612C127.226 23.9612 126.098 24.4072 125.287 25.2019C125.236 25.2497 125.152 25.2145 125.152 25.1456V20.077C125.152 20.0563 125.148 20.0358 125.14 20.0166C125.132 19.9975 125.12 19.9801 125.106 19.9654C125.091 19.9508 125.073 19.9392 125.054 19.9314C125.035 19.9236 125.014 19.9197 124.993 19.9199H122.174C122.153 19.9197 122.133 19.9236 122.113 19.9314C122.094 19.9392 122.076 19.9508 122.062 19.9654C122.047 19.9801 122.035 19.9975 122.027 20.0166C122.019 20.0358 122.015 20.0563 122.016 20.077V35.8102C122.016 35.8976 122.086 35.9665 122.174 35.9665H124.993C125.014 35.9667 125.034 35.9628 125.054 35.955C125.073 35.9473 125.091 35.9358 125.105 35.9212C125.12 35.9067 125.132 35.8894 125.14 35.8703C125.148 35.8513 125.152 35.8308 125.152 35.8102V28.9079C125.152 27.5749 126.189 26.5526 127.587 26.5526C128.986 26.5526 129.999 27.553 129.999 28.9079V35.8094C129.999 35.8967 130.069 35.9656 130.158 35.9656H132.976C132.997 35.9658 133.018 35.962 133.037 35.9542C133.056 35.9464 133.074 35.9349 133.089 35.9204C133.104 35.9059 133.115 35.8886 133.123 35.8695C133.131 35.8504 133.135 35.83 133.135 35.8094V28.9079C133.135 26.0083 131.206 23.9612 128.503 23.9612ZM138.852 23.5101C137.322 23.5101 135.888 23.9721 134.859 24.6382C134.825 24.66 134.801 24.694 134.791 24.7331C134.782 24.7722 134.788 24.8135 134.808 24.8482L136.05 26.9381C136.096 27.0129 136.193 27.0389 136.268 26.9936C137.05 26.5291 137.946 26.2868 138.858 26.293C141.318 26.293 143.126 28.0033 143.126 30.2629C143.126 32.1881 141.678 33.6145 139.844 33.6145C138.349 33.6145 137.311 32.756 137.311 31.5455C137.311 30.8525 137.61 30.2839 138.389 29.8823C138.408 29.8727 138.425 29.8593 138.438 29.843C138.452 29.8266 138.462 29.8077 138.468 29.7873C138.473 29.767 138.475 29.7457 138.472 29.7247C138.469 29.7038 138.462 29.6837 138.451 29.6656L137.279 27.7109C137.26 27.6794 137.23 27.6555 137.195 27.6434C137.16 27.6313 137.122 27.6317 137.087 27.6446C135.518 28.2183 134.415 29.5993 134.415 31.4523C134.415 34.2562 136.68 36.3495 139.841 36.3495C143.532 36.3495 146.186 33.8295 146.186 30.215C146.186 26.3409 143.098 23.5101 138.852 23.5101ZM154.431 23.9377C153.006 23.9377 151.731 24.4585 150.802 25.3715C150.791 25.3828 150.777 25.3906 150.762 25.3938C150.746 25.397 150.73 25.3956 150.715 25.3896C150.701 25.3836 150.688 25.3734 150.679 25.3603C150.671 25.3472 150.666 25.3318 150.666 25.3161V24.2157C150.667 24.1951 150.663 24.1746 150.655 24.1556C150.647 24.1365 150.635 24.1192 150.62 24.1047C150.605 24.0901 150.588 24.0786 150.569 24.0709C150.549 24.0631 150.529 24.0592 150.508 24.0595H147.763C147.742 24.0591 147.721 24.0629 147.702 24.0707C147.682 24.0785 147.665 24.09 147.65 24.1047C147.635 24.1193 147.623 24.1367 147.615 24.156C147.607 24.1752 147.603 24.1958 147.603 24.2165V39.9262C147.603 40.0136 147.674 40.0825 147.763 40.0825H150.58C150.601 40.0828 150.622 40.079 150.641 40.0713C150.66 40.0636 150.678 40.0521 150.693 40.0375C150.708 40.023 150.719 40.0056 150.727 39.9865C150.735 39.9674 150.74 39.9469 150.739 39.9262V34.7745C150.739 34.7056 150.823 34.6712 150.875 34.7157C151.801 35.5658 153.027 36.0622 154.43 36.0622C157.737 36.0622 160.315 33.4255 160.315 29.9999C160.315 26.5744 157.734 23.9377 154.431 23.9377ZM153.897 33.4011C152.017 33.4011 150.592 31.9277 150.592 29.9789C150.592 28.0301 152.015 26.5559 153.897 26.5559C155.781 26.5559 157.201 28.0058 157.201 29.9789C157.201 31.9513 155.8 33.4011 153.895 33.4011H153.897Z" fill="white"/>
</g>
<defs>
<clipPath id="clip0_49_61">
<rect width="84" height="21" fill="white" transform="translate(110.5 19.5)"/>
</clipPath>
</defs>
</svg>
